<?xml version="1.0" standalone="no"?>
<!DOCTYPE svg PUBLIC "-//W3C//DTD SVG 20010904//EN"
 "http://www.w3.org/TR/2001/REC-SVG-20010904/DTD/svg10.dtd">
<svg version="1.0" xmlns="http://www.w3.org/2000/svg"
 width="435.000000pt" height="435.000000pt" viewBox="0 0 435.000000 435.000000"
 preserveAspectRatio="xMidYMid meet">
<metadata>
Created by potrace 1.11, written by Peter Selinger 2001-2013
</metadata>
<g transform="translate(0.000000,435.000000) scale(0.100000,-0.100000)"
fill="#000000" stroke="none">
<path d="M2764 4197 c-86 -63 -309 -310 -361 -398 -10 -16 -20 -29 -24 -29 -4
0 -16 -15 -27 -32 -11 -18 -48 -71 -83 -118 -67 -92 -269 -396 -269 -405 0 -3
-8 -18 -19 -33 -31 -46 -51 -82 -49 -86 2 -2 -4 -12 -13 -22 -9 -11 -27 -39
-40 -64 -13 -25 -26 -47 -29 -50 -3 -3 -12 -18 -20 -35 -8 -16 -19 -33 -25
-37 -5 -4 -7 -8 -2 -8 4 0 -3 -17 -16 -37 -52 -83 -201 -404 -259 -558 -52
-137 -133 -408 -142 -475 -2 -8 -6 -28 -9 -45 -14 -63 -32 -177 -41 -255 -2
-14 -4 -31 -4 -38 -1 -7 -20 5 -42 27 -40 40 -130 105 -130 95 0 -3 15 -29 34
-57 76 -117 110 -198 132 -315 4 -17 0 -22 -18 -23 -45 -2 -83 3 -95 13 -7 6
-13 8 -13 4 0 -3 -11 -1 -25 4 -14 5 -25 6 -25 2 0 -13 33 -37 90 -65 30 -15
46 -27 37 -27 -9 0 -18 1 -19 1 -5 2 -119 -61 -144 -79 -38 -27 -28 -30 34 -9
46 16 192 34 192 23 0 -1 -12 -36 -26 -77 -14 -41 -27 -81 -29 -89 -3 -8 -36
-108 -74 -222 -38 -114 -72 -222 -76 -240 -4 -18 -12 -39 -17 -45 -6 -7 -7
-13 -4 -13 4 0 2 -8 -3 -19 -6 -10 -21 -56 -35 -102 -14 -46 -31 -105 -39
-131 -16 -52 -7 -61 25 -25 16 17 72 166 75 200 1 4 6 20 11 35 6 15 25 74 43
132 18 58 36 111 42 118 5 6 7 12 4 12 -5 0 50 172 70 220 3 8 7 17 8 20 14
48 31 97 70 205 26 72 49 139 52 150 3 11 9 25 13 30 4 6 11 24 15 40 10 36
10 35 20 60 4 11 22 58 40 105 18 47 36 94 40 105 5 11 9 22 9 25 4 15 60 158
70 175 5 11 11 22 11 25 2 13 19 59 37 100 32 74 35 84 49 120 6 19 20 53 29
75 10 22 37 85 60 140 24 55 50 116 58 135 9 19 16 37 17 40 1 3 10 23 20 45
10 22 17 43 17 48 -1 4 2 7 8 7 5 0 10 5 10 11 0 24 244 524 337 689 38 69 82
148 98 175 15 28 33 57 40 65 6 8 24 38 40 65 16 28 33 53 39 57 6 4 7 8 3 8
-5 0 4 17 21 38 16 20 46 64 67 97 21 33 41 62 45 65 3 3 19 23 33 45 15 22
27 36 27 32 0 -9 -50 -86 -67 -105 -7 -7 -13 -17 -13 -22 0 -5 -6 -15 -12 -22
-7 -8 -19 -25 -27 -38 -8 -14 -36 -60 -63 -103 -26 -43 -48 -80 -48 -83 0 -2
-15 -27 -32 -56 -39 -62 -70 -120 -93 -168 -9 -19 -19 -37 -23 -40 -15 -11
-252 -499 -252 -519 0 -6 -4 -11 -10 -11 -5 0 -10 -4 -10 -10 0 -5 -11 -34
-25 -65 -14 -30 -36 -79 -49 -108 -13 -28 -23 -54 -23 -57 1 -3 -6 -18 -15
-35 -9 -16 -28 -59 -43 -95 -15 -36 -36 -84 -46 -107 -11 -23 -19 -44 -19 -47
0 -2 -10 -26 -22 -53 -12 -26 -22 -50 -23 -53 -1 -7 -41 -110 -56 -145 -7 -16
-13 -32 -14 -35 -1 -3 -5 -14 -10 -25 -4 -11 -27 -69 -50 -130 -23 -60 -45
-119 -50 -130 -4 -11 -9 -24 -10 -30 -2 -5 -22 -59 -45 -120 -23 -60 -43 -117
-45 -125 -2 -8 -4 -16 -5 -17 -2 -2 -3 -6 -5 -10 -1 -5 -5 -16 -8 -26 -4 -9
-10 -25 -14 -35 -9 -23 -9 -23 -18 -57 -4 -16 -11 -34 -15 -40 -4 -5 -10 -22
-13 -36 -5 -20 -1 -30 22 -47 15 -11 42 -42 60 -68 17 -26 31 -43 31 -38 0 29
-26 94 -50 124 l-28 35 57 1 c217 3 361 68 452 202 16 24 29 45 29 48 0 3 -18
-9 -39 -27 -32 -25 -51 -32 -98 -35 l-58 -4 45 24 c25 14 52 28 60 33 51 25
160 139 203 211 l37 63 -31 -23 c-127 -95 -204 -127 -314 -129 -107 -3 -115 0
-55 20 265 84 466 270 613 566 47 94 106 242 117 290 1 6 6 16 12 23 6 6 7 12
4 12 -4 0 -2 9 4 20 10 19 9 19 -32 4 -59 -22 -98 -33 -98 -29 0 2 21 16 48
31 60 35 130 104 176 174 20 30 36 58 36 61 0 4 -26 -5 -57 -21 -32 -16 -71
-32 -88 -35 -26 -6 -23 -3 17 22 49 29 96 70 137 118 25 29 71 116 71 133 0 6
3 12 8 14 7 3 62 155 62 171 0 4 -14 0 -31 -9 -40 -20 -129 -47 -136 -40 -3 2
14 14 36 26 81 41 172 155 262 330 24 47 46 87 49 90 8 8 46 92 68 150 38 100
39 103 47 145 3 17 8 37 11 45 13 33 13 208 0 260 -22 95 -60 154 -135 208
-35 25 -54 32 -91 32 -41 0 -57 -7 -106 -43z m-14 -341 c0 -2 -8 -10 -17 -17
-16 -13 -17 -12 -4 4 13 16 21 21 21 13z"/>
<path d="M3299 3864 c-7 -59 -6 -84 3 -84 6 0 8 9 5 21 -4 15 -2 19 9 15 8 -3
14 0 14 7 -1 15 -30 54 -31 41z"/>
<path d="M3223 3853 c17 -4 21 -18 17 -60 -1 -13 3 -23 8 -23 5 0 8 14 7 30
-1 17 4 37 12 45 13 13 10 15 -24 14 -21 -1 -30 -3 -20 -6z"/>
<path d="M3365 3848 c-3 -7 -1 -26 4 -43 8 -29 9 -28 9 13 0 42 -5 53 -13 30z"/>
<path d="M3333 3805 c-8 -22 6 -33 17 -15 13 20 12 30 0 30 -6 0 -13 -7 -17
-15z"/>
</g>
</svg>
